<svg id="visual" viewBox="0 0 900 600" width="900" height="600" xmlns="http://www.w3.org/2000/svg" xmlns:xlink="http://www.w3.org/1999/xlink" version="1.1"><rect x="0" y="0" width="900" height="600" fill="#001220"></rect><defs><linearGradient id="grad1_0" x1="33.3%" y1="0%" x2="100%" y2="100%"><stop offset="20%" stop-color="#6600ff" stop-opacity="1"></stop><stop offset="80%" stop-color="#6600ff" stop-opacity="1"></stop></linearGradient></defs><defs><linearGradient id="grad1_1" x1="33.3%" y1="0%" x2="100%" y2="100%"><stop offset="20%" stop-color="#6600ff" stop-opacity="1"></stop><stop offset="80%" stop-color="#0031dd" stop-opacity="1"></stop></linearGradient></defs><defs><linearGradient id="grad1_2" x1="33.3%" y1="0%" x2="100%" y2="100%"><stop offset="20%" stop-color="#0035b1" stop-opacity="1"></stop><stop offset="80%" stop-color="#0031dd" stop-opacity="1"></stop></linearGradient></defs><defs><linearGradient id="grad1_3" x1="33.3%" y1="0%" x2="100%" y2="100%"><stop offset="20%" stop-color="#0035b1" stop-opacity="1"></stop><stop offset="80%" stop-color="#002e81" stop-opacity="1"></stop></linearGradient></defs><defs><linearGradient id="grad1_4" x1="33.3%" y1="0%" x2="100%" y2="100%"><stop offset="20%" stop-color="#00214f" stop-opacity="1"></stop><stop offset="80%" stop-color="#002e81" stop-opacity="1"></stop></linearGradient></defs><defs><linearGradient id="grad1_5" x1="33.3%" y1="0%" x2="100%" y2="100%"><stop offset="20%" stop-color="#00214f" stop-opacity="1"></stop><stop offset="80%" stop-color="#001220" stop-opacity="1"></stop></linearGradient></defs><defs><linearGradient id="grad2_0" x1="0%" y1="0%" x2="66.7%" y2="100%"><stop offset="20%" stop-color="#6600ff" stop-opacity="1"></stop><stop offset="80%" stop-color="#6600ff" stop-opacity="1"></stop></linearGradient></defs><defs><linearGradient id="grad2_1" x1="0%" y1="0%" x2="66.7%" y2="100%"><stop offset="20%" stop-color="#0031dd" stop-opacity="1"></stop><stop offset="80%" stop-color="#6600ff" stop-opacity="1"></stop></linearGradient></defs><defs><linearGradient id="grad2_2" x1="0%" y1="0%" x2="66.7%" y2="100%"><stop offset="20%" stop-color="#0031dd" stop-opacity="1"></stop><stop offset="80%" stop-color="#0035b1" stop-opacity="1"></stop></linearGradient></defs><defs><linearGradient id="grad2_3" x1="0%" y1="0%" x2="66.7%" y2="100%"><stop offset="20%" stop-color="#002e81" stop-opacity="1"></stop><stop offset="80%" stop-color="#0035b1" stop-opacity="1"></stop></linearGradient></defs><defs><linearGradient id="grad2_4" x1="0%" y1="0%" x2="66.7%" y2="100%"><stop offset="20%" stop-color="#002e81" stop-opacity="1"></stop><stop offset="80%" stop-color="#00214f" stop-opacity="1"></stop></linearGradient></defs><defs><linearGradient id="grad2_5" x1="0%" y1="0%" x2="66.7%" y2="100%"><stop offset="20%" stop-color="#001220" stop-opacity="1"></stop><stop offset="80%" stop-color="#00214f" stop-opacity="1"></stop></linearGradient></defs><g transform="translate(900, 0)"><path d="M0 486.7C-65.5 481.4 -131.1 476.1 -186.3 449.7C-241.5 423.3 -286.4 375.7 -328.8 328.8C-371.2 281.9 -411.1 235.7 -437 181C-462.9 126.3 -474.8 63.2 -486.7 0L0 0Z" fill="#001a37"></path><path d="M0 405.6C-54.6 401.2 -109.2 396.8 -155.2 374.7C-201.2 352.7 -238.7 313.1 -274 274C-309.3 234.9 -342.6 196.4 -364.2 150.8C-385.8 105.3 -395.7 52.6 -405.6 0L0 0Z" fill="#002868"></path><path d="M0 324.5C-43.7 321 -87.4 317.4 -124.2 299.8C-161 282.2 -190.9 250.5 -219.2 219.2C-247.5 187.9 -274.1 157.1 -291.3 120.7C-308.6 84.2 -316.5 42.1 -324.5 0L0 0Z" fill="#003299"></path><path d="M0 243.4C-32.8 240.7 -65.5 238.1 -93.1 224.8C-120.7 211.6 -143.2 187.8 -164.4 164.4C-185.6 141 -205.5 117.8 -218.5 90.5C-231.5 63.2 -237.4 31.6 -243.4 0L0 0Z" fill="#0035c8"></path><path d="M0 162.2C-21.8 160.5 -43.7 158.7 -62.1 149.9C-80.5 141.1 -95.5 125.2 -109.6 109.6C-123.7 94 -137 78.6 -145.7 60.3C-154.3 42.1 -158.3 21.1 -162.2 0L0 0Z" fill="#3027ef"></path><path d="M0 81.1C-10.9 80.2 -21.8 79.4 -31 74.9C-40.2 70.5 -47.7 62.6 -54.8 54.8C-61.9 47 -68.5 39.3 -72.8 30.2C-77.2 21.1 -79.1 10.5 -81.1 0L0 0Z" fill="#6600ff"></path></g><g transform="translate(0, 600)"><path d="M0 -486.7C70.2 -487.7 140.3 -488.6 186.3 -449.7C232.2 -410.8 254 -332 277.2 -277.2C300.4 -222.4 325.1 -191.5 360.3 -149.2C395.5 -107 441.1 -53.5 486.7 0L0 0Z" fill="#001a37"></path><path d="M0 -405.6C58.5 -406.4 116.9 -407.2 155.2 -374.7C193.5 -342.3 211.6 -276.7 231 -231C250.3 -185.3 270.9 -159.5 300.3 -124.4C329.6 -89.2 367.6 -44.6 405.6 0L0 0Z" fill="#002868"></path><path d="M0 -324.5C46.8 -325.1 93.5 -325.7 124.2 -299.8C154.8 -273.9 169.3 -221.3 184.8 -184.8C200.3 -148.2 216.8 -127.6 240.2 -99.5C263.7 -71.4 294.1 -35.7 324.5 0L0 0Z" fill="#003299"></path><path d="M0 -243.4C35.1 -243.8 70.2 -244.3 93.1 -224.8C116.1 -205.4 127 -166 138.6 -138.6C150.2 -111.2 162.6 -95.7 180.2 -74.6C197.7 -53.5 220.6 -26.8 243.4 0L0 0Z" fill="#0035c8"></path><path d="M0 -162.2C23.4 -162.6 46.8 -162.9 62.1 -149.9C77.4 -136.9 84.7 -110.7 92.4 -92.4C100.1 -74.1 108.4 -63.8 120.1 -49.7C131.8 -35.7 147 -17.8 162.2 0L0 0Z" fill="#3027ef"></path><path d="M0 -81.1C11.7 -81.3 23.4 -81.4 31 -74.9C38.7 -68.5 42.3 -55.3 46.2 -46.2C50.1 -37.1 54.2 -31.9 60.1 -24.9C65.9 -17.8 73.5 -8.9 81.1 0L0 0Z" fill="#6600ff"></path></g></svg>